<svg viewBox="0 0 1080 1080" xmlns="http://www.w3.org/2000/svg">
  <polyline points="969,433 310,634 177,333 210,646 373,123 587,161 325,241 680,167 308,212 421,170 375,140 535,118 607,147 371,121 424,161 341,174 397,217 275,173 595,178 661,176 227,231 275,258 356,244 459,130 343,302 316,236 532,137 542,97 332,123 399,234 530,138 307,248 585,209 623,135 545,169 559,161 573,203 533,201 177,324 308,512 243,430 193,416 222,591 241,379 294,316 253,200 328,284 526,101 748,211 456,83 265,183 153,457 254,555 262,260 265,450 267,425 301,464 296,412 322,271 673,208 425,238 267,240 300,239 249,443 194,554 208,225 315,331 203,431 342,373 217,145 279,521 242,407 256,501 287,524 244,397 233,405 179,569 211,615 244,409 162,299 171,478 225,552 233,465 209,549 193,251 307,150 350,126 163,380 263,444 218,184 378,259 134,317 593,94 153,482 363,404 263,538 210,372 223,657 200,530 235,436 193,535 178,576 229,383 295,492 210,229 144,379 267,427 216,364 379,320 239,179 374,131 352,130 235,508 225,622 175,538 189,507 148,547 242,493 246,206 288,294 318,251 251,312 261,188 353,213 225,176 332,414 207,403 207,685 283,436 272,428 258,402 215,450 312,219 258,199 386,120 463,181 461,122 202,247 192,247 210,277 259,229 293,229 190,274 365,156 271,545 422,170 270,256 194,240 358,153 632,174 465,114 466,88 254,243 298,149 285,213 195,220 201,353 234,567 295,508 185,599 202,436 201,501 228,589 270,530 276,352 214,509 214,384 148,533 249,504 183,547 165,508 207,624 333,362 237,494 187,576 210,504 291,470 310,197 279,237 289,296 272,192 327,290 345,469 293,406 296,241 205,591 289,338 193,641 340,148 185,245 210,238 293,193 262,161 323,171 247,166 287,504 254,343 335,475 162,375 325,184 154,316 222,561 145,505 253,677 183,592 178,352 303,138 311,357 594,105 150,352 187,541 163,392 244,410 287,277 260,263 314,222 262,365 177,491 152,322 160,550 321,443 301,441 300,146 179,268 276,226 266,180 296,198 212,472 394,109 280,176 268,275 213,601 227,589 173,585 544,127 460,242 599,156 365,273 557,204 392,230 335,275 240,326 224,574 171,282 219,194 306,198 248,223 148,419 308,408 299,470 222,248 144,405 398,145 184,474 171,487 405,192 179,510 152,294 184,451 231,604 300,452 232,587 296,462 550,158 249,312 199,595 158,500 286,361 244,437 306,270 294,258 290,222 263,303 327,235 182,574 275,397 169,439 196,568 247,175 262,235 280,431 232,606 169,547 230,560 190,423 232,557 197,414 186,534 238,224 696,200 467,296 475,110 680,192 526,194 662,207 440,78 566,109 298,242 459,168 228,174 745,213 350,174 655,209 511,107 382,191 521,88 322,152 678,196 356,287 606,187 583,152 526,100 262,168 368,109 566,133 651,284 490,196 437,202 512,69 504,146 544,206 423,306 446,333 489,81 451,268 421,143 568,246 641,147 564,117 566,259 470,144 318,155 718,233 342,119 615,168 655,211 463,253 622,227 611,185 387,109 356,436 177,667 446,133 485,215 617,265 591,200 723,200 517,172 560,221 607,184 528,293 409,220 638,179 586,238 570,172 592,123 594,120 546,106 446,124 382,102 510,101 690,255 298,220 723,211 562,122 599,175 274,196 557,119 437,176 736,207 328,123 567,106 639,150 672,159 557,98 348,286 628,217 688,214 652,144 502,234 312,337 380,265 219,548 552,232 358,101 681,208 675,190 437,208 489,84 496,228 600,279 579,107 616,195 566,191 657,246 514,135 449,151 419,316 513,58 384,203 734,198 673,158 360,297 504,161 450,129 326,577 318,290 303,407 453,48 587,299 403,71 682,205 739,230 411,105 341,166 438,98 489,120 482,206 590,268 578,230 403,298 433,79 635,200 435,312 501,232 626,154 362,308 523,227 570,269 534,168 341,162 450,136 545,141 664,155 342,161 548,292 363,280 740,208 504,176 625,284 473,71 515,123 414,293 647,132 668,184 698,237 450,147 593,96 345,172 504,84 444,196 416,135 687,157 439,68 596,141 633,221 614,165 699,209 447,87 603,167 548,103 542,95 244,536 559,132 450,93 803,246 527,85 438,171 665,173 610,240 411,90 269,157 515,123 422,115 555,106 418,108 379,160 732,192 237,178 177,269 173,393 593,125 756,224 479,104 427,133 636,220 494,100 496,161 718,169 553,110 237,250 407,105 470,111 417,131 554,207 627,141 637,144 608,139 610,217 671,149 235,366 597,118 709,187 570,230 649,158 546,268 310,197 722,177 564,227 436,143 762,184 374,235 292,532 279,533 307,485 332,297 655,207 550,171 534,127 310,149 564,147 712,185 705,173 486,218 641,192 569,239 605,226 544,260 178,313 466,260 600,107 547,274 626,159 214,137 328,594 257,582 341,412 504,69 408,141 527,129 166,195 624,150 626,141 183,697 295,487 467,425 163,280 169,647 461,353 321,508 326,486 345,220 292,335 400,231 276,561 310,465 393,554 317,432 207,713 148,382 291,550 149,502 273,185 133,382 219,648 194,556 324,534 314,445 261,552 373,449 296,462 499,277 630,243 618,281 215,264 250,596 371,416 413,452 215,533 363,519 180,475 446,420 179,517 303,791 95,460 386,505 254,355 374,225 145,444 263,755 327,172 354,486 224,583 486,262 394,323 293,605 372,161 282,455 223,546 451,472 213,442 166,251 179,444 274,782 209,152 238,704 239,231 410,477 206,648 232,711 268,433 453,459 223,492 457,497 327,474 411,574 269,530 394,526 310,530 333,328 143,324 260,274 132,513 186,609 229,669 244,584 243,433 262,601 552,168 329,511 257,550 322,477 411,460 355,560 201,237 279,199 210,373 217,227 144,353 349,472 226,270 148,389 267,296 160,307 263,175 389,341 257,556 395,287 382,588 341,225 194,296 282,280 287,256 380,371 234,606 242,655 247,728 192,553 238,623 270,727 247,659 106,518 248,650 200,646 360,321 213,710 188,597 145,485 260,774 699,930 185,403 147,566 314,801 201,637 170,598 175,541 321,797 615,922 122,546 426,927 153,540 357,881 211,577 421,424 346,420 200,662 288,374 413,289 235,601 202,710 182,180 243,699 147,352 192,266 179,527 469,560 93,410 258,713 93,493 414,546 153,312 212,626 158,454 165,399 178,417 213,251 235,227 180,315 255,303 391,473 244,471 258,486 244,481 344,342 289,603 332,472 267,554 491,397 137,569 419,508 165,442 192,432 357,509 414,390 252,563 364,490 325,518 298,402 377,510 249,555 151,635 414,454 251,418 421,469 367,211 264,402 744,184 235,543 253,525 145,377 223,731 368,214 180,649 471,66 368,441 321,416 344,472 430,302 461,321 329,449 326,642 290,280 369,550 404,412 348,568 406,304 192,607 335,480 325,445 383,476 156,609 314,758 503,832 624,908 705,829 526,909 653,905 206,712 153,351 160,429 164,646 331,736 195,646 153,424 197,212 186,680 383,417 236,647 131,575 276,722 189,577 223,670 227,629 239,663 284,751 172,462 242,304 329,183 207,349 433,555 301,520 368,472 156,567 192,211 251,514 297,546 369,550 229,506 244,786 296,321 168,282 320,222 520,290 300,180 297,150 173,235 437,66 257,186 182,256 150,551 166,575 698,515 426,462 421,81 179,419 435,153 925,907 819,700 628,888 325,819 936,344 559,649 874,380 776,591 899,353 751,601 413,360 626,230 763,247 177,255 736,218 751,259 618,215 401,247 751,231 717,206 297,428 186,322 299,135 486,234 309,137 395,256 329,256 609,260 637,225 788,244 488,255 706,578 619,409 921,857 531,321 315,188 480,285 224,318 150,532 690,181 365,385 762,595 565,439 187,389 366,167 521,247 414,402 406,333 465,227 624,259 488,327 340,144 309,227 420,125 447,106 264,248 233,201 445,71 191,387 245,195 380,187 158,306 160,639 611,929 573,848 563,953 810,776 531,977 781,729 901,769 248,86 686,568 722,424 643,553 753,492 655,560 672,515 647,543 915,455 650,543 1003,487 249,575 610,1001 224,471 637,224 557,309 339,162 161,500 200,679 215,679 785,455 590,521 727,535 814,489 648,505 772,511 308,641 848,477 305,429 316,186 252,334 659,243 288,215 439,139 327,317 285,325 658,230 699,227 732,224 540,225 844,523 512,379 721,605 658,492 875,818 442,240 147,296 416,259 346,228 327,234 436,260 519,173 212,215 207,421 317,109 363,324 523,185 350,315 487,256 213,389 309,116 456,444 306,792 154,587 191,254 208,293 629,111 705,706 876,823 785,724 857,736 568,789 469,847 540,859 427,873 846,836 665,467 702,469 661,592 720,500 659,556 646,488 731,496 879,450 747,532 491,520 735,565 494,510 301,173 451,219 179,266 601,236 96,364 763,218 678,172 387,482 902,443 758,482 605,614 767,459 813,476 549,531 840,501 398,531 332,185 318,174 247,223 535,286 672,231 722,177 663,253 371,264 452,179 438,368 391,145 368,348 444,281 150,335 213,397 378,156 370,231 572,270 225,164 549,147 366,406 568,94 226,205 299,362 542,150 161,340 238,406 419,126 359,697 400,532 842,529 798,437 840,757 685,529 615,483 635,527 886,413 617,557 668,494 801,464 589,543 820,447 582,503 755,596 521,445 752,575 631,545 679,508 684,528 588,560 966,386 674,537 728,469 895,465 427,541 387,107 283,298 670,223 385,325 409,135 257,396 400,96 315,146 260,169 322,158 248,283 369,372 357,251 364,708 359,592 340,810 615,922 552,830 897,710 580,966 780,777 873,671 533,950 854,773 707,734 962,741 374,810 956,726 698,758 617,950 550,811 320,803 723,983 333,659 616,908 487,822 635,968 462,729 300,599 570,933 706,900 649,899 437,855 412,868 343,582 426,824 667,900 478,772 441,823 316,535 409,850 714,862 380,903 710,874 560,925 676,868 569,926 346,669 718,948 508,873 179,686 499,864 697,911 707,873 437,875 474,880 378,547 466,661 254,617 366,641 427,659 566,893 513,856 564,934 635,848 831,703 583,927 394,743 496,737 392,784 298,783 735,937 300,793 280,766 251,683 283,741 382,951 385,927 748,877 589,873 512,906 482,885 412,860 826,899 440,835 461,834 161,695 763,973 406,721 405,883 350,594 359,720 657,916 805,719 682,875 696,917 471,836 810,858 551,879 858,836 748,757 807,750 875,718 413,890 899,887 726,726 854,721 567,864 856,716 701,775 849,835 614,918 810,861 549,896 558,893 706,853 512,839 561,952 511,797 649,1013 458,662 205,613 714,882 443,846 623,853 313,770 291,749 591,842 222,733 640,854 808,818 824,841 695,656 795,806 875,727 400,786 599,955 537,886 164,679 743,927 496,882 448,812 406,771 828,739 558,776 465,863 684,923 451,786 489,899 754,902 525,899 278,751 638,893 643,928 659,904 584,904 591,827 392,803 414,825 561,899 738,842 839,793 752,715 809,814 796,726 837,428 768,554 364,100 700,166 548,159 611,109 556,158 402,755 608,956 486,790 139,338 325,116 353,133 192,188 181,403 199,374 674,940 856,431 658,472 668,460 661,391 675,568 659,559 628,473 826,474 833,508 794,472 593,435 662,505 715,431 581,522 751,427 885,515 482,260 481,260 327,829 718,931 498,837 636,924 588,859 321,785 556,739 208,654 255,747 308,753 424,852 780,872 803,745 661,787 573,918 511,891 608,946 558,879 338,691 566,951 301,597 600,918 784,789 782,891 375,866 343,914 1011,864 570,898 388,754 459,905 781,875 795,873 558,929 772,880 674,919 493,897 693,916 300,871 963,775 260,784 693,904 369,805 496,653 304,535 894,431 259,564 611,937 884,720 646,744 712,907 342,759 386,814 569,910 695,914 340,894 762,922 133,392 233,162 195,426 166,612 174,582 460,508 181,290 602,847 233,583 621,313 562,316 770,197 433,71 300,139 396,546 419,266 451,93 237,132 220,521 518,303 729,208 505,98 671,181 553,108 663,207 558,92 269,155 398,188 158,360 201,501 747,203 690,248 203,367 326,159 227,226 195,290 153,620 254,313 245,178 386,127 269,203 136,570 507,525 291,414 287,377 326,413 166,282 379,124 516,62 368,132 301,176 559,53 251,483 339,313 235,490 518,327 743,195 742,218 741,229 460,60 281,145 345,125 449,120 142,445 180,201 140,615 210,497 163,466 132,351 703,169 426,88 492,134 382,611 521,759 432,327 183,475 538,786 351,364 128,422 211,357 365,321 783,218 409,29 184,445 191,416 771,210 635,140 514,102 634,155 202,511 715,184 548,134 517,87 344,116 525,130 501,65 242,164 234,217 298,135 515,131 636,120 690,367 517,268 366,510 378,572 459,396 391,377 570,265 737,243 534,108 258,144 212,245 224,202 478,69 233,178 502,27 393,651 320,288 218,482 177,343 174,449 216,449 207,495 354,65 653,128 633,271 186,379 312,374 150,288 489,46 222,179 234,239 165,266 363,314 219,350 222,223 296,111 615,85 296,433 768,188 365,379 184,412 191,416 149,575 159,301 208,274 235,740 152,522 188,409 196,490 230,273 450,56 376,149 463,87 405,104 248,153 455,726 338,331 378,336 472,664 398,669 430,436 474,490 196,228 237,213 205,286 166,584 218,266 375,114 364,194 299,456 648,252 718,215 125,549 438,523 382,469 388,520 587,230 637,279 463,260 679,287 387,164 169,626 193,572 545,448 301,313 362,240 405,661 411,472 533,278 343,614 331,623 440,589 416,421 388,507 352,312 188,246 254,432 430,605 399,525 321,497 524,651 336,398 217,454 510,496 193,212 354,446 646,229 549,286 745,231 709,195 376,339 166,631 220,204 187,233 236,246 224,185 420,537 328,331 141,554 511,258 324,645 448,357 453,357 400,647 420,134 411,620 393,624 408,626 367,635 451,568 364,293 414,588 477,321 396,518 441,521 429,264 488,424 392,570 248,709 170,634 207,627 186,595 140,592 223,537 402,324 296,365 492,474 171,339 185,394 206,544 166,381 480,423 163,371 413,305 434,359 561,437 451,368 574,434 846,446 768,417 856,535 772,483 973,486 591,425 918,421 452,516 906,426 633,479 1011,986 781,465 996,739 803,454 830,649 797,414 811,503 828,393 551,619 283,742 564,429 439,439 804,454 879,514 764,475 801,525 828,408 786,775 747,656 911,347 177,642 570,727 359,686 188,592 636,568 573,572 823,497 766,496 927,589 797,874 951,629 756,882 735,902 920,741 798,390 643,576 454,443 843,479 775,388 851,463 738,520 595,607 901,453 716,584 678,348 794,647 798,576 867,871 775,632 856,819 944,956 925,804 748,613 938,836 784,785 788,822 874,750 852,726 789,624 952,955 876,854 806,629 815,627 755,708 844,486 816,424 837,486 727,529 576,416 910,580 794,845 838,785 888,686 867,699 811,847 836,724 755,759 854,747 826,754 843,312 525,624 935,322 535,609 230,721 811,483 871,433 713,436 969,553 462,334 451,405 499,375 884,502 759,499 844,462 827,519 777,562 862,330 785,937 832,741 828,404 789,878 873,792 801,363 582,509 801,427 991,720 693,370 707,362 570,682 745,232 205,193 372,303 835,524 749,533 619,334 935,599 505,222 620,212 815,216 433,218 195,232 558,163 684,187 680,166 689,487 652,449 887,512 661,314 641,572 500,456 967,499 283,601 317,717 154,316 225,138 767,599 812,638 827,438 847,557 796,451 948,578 654,366 794,437 516,486 482,374 912,729 968,869 773,759 857,811 733,840 840,388 844,864 854,709 958,714 712,356 709,476 725,448 607,468 826,462 776,687 841,376 774,684 845,476 553,477 742,459 619,416 721,380 683,446 766,452 587,480 841,374 752,840 848,389 603,515 897,517 492,259 817,546 877,365 287,741 401,1014 240,591 364,567 366,578 270,584 271,591 371,566 238,730 279,725 695,436 589,591 945,468 285,607 322,701 408,582 694,516 732,464 613,482 717,432 473,261 478,786 568,805 889,780 668,891 847,374 759,700 748,713 924,898 969,718 810,710 784,892 838,583 784,481 838,629 784,460 914,827 851,855 984,808 921,842 932,907 822,660 857,305 730,763 909,746 802,709 914,864 716,795 984,894 739,833 928,729 709,928 868,327 790,725 830,878 824,362 827,602 700,719 822,509 848,321 766,900 945,657 810,724 990,845 809,781 408,688 661,842 766,806 352,695 232,685 368,612 144,539 304,245 649,138 845,318 644,568 520,531 298,592 431,565 197,711 142,439 411,307 410,97 338,572 368,854 431,519 435,519 476,446 511,481 427,341 448,651 381,808 259,750 235,717 253,757 186,613 335,262 342,230 526,204 400,277 418,181 740,440 600,334 516,230 345,159 210,251 159,373 610,105 171,359 610,88 406,116 384,159 405,361 298,678 195,677 734,853 677,718 767,666 853,626 457,900 313,753 349,801 377,950 270,700 268,699 806,872 348,624 369,679 520,701 386,693 504,346 318,155 292,180 540,136 356,110 506,226 667,325 594,261 414,587 498,635 399,699 499,753 544,688 426,682 407,661 469,365 668,249 415,89 500,151 383,158 312,122 336,150 173,210 157,421 267,451 309,321 192,660 257,269 673,109 320,336 433,215 360,308 553,444 506,403 331,185 265,369 221,346 379,700 526,780 333,670 676,833 580,855 749,689 716,638 806,717 425,818 305,537 264,302 393,286 534,836 286,569 503,745 437,699 377,654 204,747 137,339 212,185 326,541 413,409 616,440 513,215 627,386 460,181 531,146 430,81 191,672 312,570 368,634 368,911 302,780 564,982 432,101 265,249 574,109 517,217 368,152 562,151 294,128 337,126 734,233 315,450 318,173 432,199 312,297 139,326 360,236 496,863 269,576 666,277 793,219 671,202 677,146 392,64 760,210 443,238 471,224 475,231 535,164 624,111 359,123 221,610 155,362 229,194 592,244 174,244 193,331 671,188 753,251 349,308 300,246 168,489 154,474 233,230 504,225 337,227 413,746 451,697 632,737 300,728 392,929 143,438 575,805 740,895 685,908 750,655 746,746 688,696 612,840 405,615 461,483 395,693 455,711 199,547 333,593 348,521 296,774 310,768 574,963 464,871 148,681 513,933 216,717 321,786 404,766 232,669 393,495 534,745 430,515 726,142 325,757 520,775 473,596 410,777 286,491 276,359 176,236 525,189 432,334 250,454 385,704 450,768 512,838 432,622 195,648 209,680 651,251 636,339 665,227 540,381 496,338 384,866 231,611 145,371 217,348 616,132 697,229 693,169 512,62 790,230 438,365 472,828 409,144 522,58 554,431 506,384 517,479 98,599 532,479 269,232 530,402 370,853 1075,734 746,897 737,861 698,866 965,774 872,754 800,779 954,948 512,157 389,167 745,171 401,323 692,339 476,465 434,283 558,214 514,78 618,389 399,209 640,201 318,255 142,569 202,581 699,562 656,235 485,268 685,579 643,527 777,408 654,396 571,326 769,464 361,703 1022,928 907,869 900,911 920,788 928,720 951,885 957,905 968,739 994,850 268,774 182,563 695,561 715,487 746,711 700,743 743,616 744,802 734,653 705,857 758,853 738,845 1064,753 858,829 895,850 745,867 678,835 205,438 325,229 444,92 753,410 584,281 627,384 641,283 603,431 614,311 679,334 605,414 563,306 772,416 651,307 542,85 628,173 788,877 710,877 736,579 1052,824 254,769 249,739 725,802 725,827 1041,780 649,877 1038,833 867,849 1003,723 676,906 614,805 559,809 1068,645 482,765 565,738 513,752 685,832 825,697 1035,938 790,687 764,837 704,799 974,790 942,718 1021,914 970,841 966,741 542,964 772,827 987,884 984,921 902,888 995,768 676,812 599,778 996,857 952,944 925,696 1039,834 938,908 989,734 949,889 905,659 702,834 726,671 824,638 992,1000 872,693 840,833 823,799 375,769 823,837 906,714 764,907 774,694 959,893 968,634 953,667 631,937 287,891 846,901 924,705 868,676 911,672 1015,933 849,819 863,841 1059,764 858,827 902,839 345,888 370,901 383,885 279,812 409,950 140,645 359,777 733,724 377,783 795,792 745,861 1058,736 928,832 955,939 923,712 1046,1047 494,321 470,295 472,713 487,731 147,312 171,437 178,452 180,697 131,235 775,225 472,38 443,362 471,434 511,695 444,205 399,179 648,324 646,325 514,354 1032,1025 498,95 576,100 753,260 730,187 597,147 626,105 347,190 550,76 358,107 370,135 397,178 538,62 183,224 145,377 228,218 169,457 686,781 758,659 722,705 969,732 846,838 958,705 768,890 1054,677 672,923 397,871 531,907 144,719 1057,911 782,595 957,740 883,814 910,721 735,774 550,764 988,876 592,848 781,857 934,655 735,772 972,753 828,792 868,777 1026,977 855,856 986,862 944,607 961,578 693,835 775,770 777,869 798,832 1022,855 949,837 965,769 878,831 1030,951 911,838 647,920 1014,725 943,841 965,989 1035,631 881,827 754,756 686,1055 716,775 973,935 918,726 986,825 955,714 642,489 274,551 258,466 224,236 179,432 143,537 241,757 155,567 282,136 205,213 342,513 425,489 460,492 583,444 499,489 462,611 350,98 175,462 675,147 601,240 841,276 433,198 479,99 149,302 252,164 350,127 361,113 410,96 147,243 430,481 180,440 373,480 367,452 185,427 186,228 496,45 528,672 572,656 718,294 599,577 858,482 811,272 425,90 277,206 470,442 410,411 421,410 192,740 273,489 260,686 513,366 698,598 485,436 502,438 476,412 572,471 428,479 274,343 335,366 201,639 189,220 143,436 471,271 142,425 578,391 467,252 508,326 535,730 135,384 173,262 259,143 276,190 535,109 330,162 394,1005 360,860 213,597 217,693 234,606 543,676 479,561 502,259 231,683 268,804 170,445 218,634 439,1072 136,529 437,371 296,682 246,361 195,453 209,390 329,556 317,242 241,618 249,366 271,640 372,933 387,951 376,959 317,734 278,686 343,165 490,70 713,187 219,385 403,592 204,330 142,304 227,704 224,581 674,219 544,242 568,593 257,648 561,650 454,584 485,603 564,438 627,570 629,619 744,494 488,576 419,253 745,238 439,93 747,244 750,169 423,374 395,381 721,537 242,665 419,381 201,731 289,774 276,717 514,235 596,230 783,188 659,652 518,378 562,428 561,550 809,445 263,229 283,367 284,394 301,502 533,442 538,430 286,538 547,75 270,388 263,667 431,1057 270,695 384,502 215,678 265,627 459,617 633,532 338,459 376,392 247,471 378,256 428,312 653,144 799,221 497,330 141,537 203,675 129,480 534,272 398,348 425,456 597,456 445,455 216,678 244,787 485,991 485,188 320,457 257,513 330,273 269,529 406,73 353,284 321,768 276,765 261,346 278,311 298,403 654,556 652,564 155,279 229,244 347,448 350,576 309,505 467,629 226,456 415,569 436,538 164,543 178,233 476,56 318,190 247,308 143,432 179,283 469,171 126,325 399,850 565,913 426,270 518,840 371,701 379,959 377,842 437,867 268,719 284,843 279,805 147,675 323,435 362,575 151,285 492,71 382,195 140,335 202,219 318,312 432,344 287,362 213,497 177,304 237,735 335,406 232,292 326,208 319,472 301,346 196,791 370,369 345,105 314,184 342,191 187,221 439,212 679,129 337,504 384,551 200,552 400,396 305,485" fill="none" stroke="black" />
</svg>
  